<?xml version="1.0" encoding="UTF-8" standalone="no"?>
<!DOCTYPE svg PUBLIC "-//W3C//DTD SVG 1.1//EN" "http://www.w3.org/Graphics/SVG/1.1/DTD/svg11.dtd">
<svg width="774px" height="942px" version="1.1" xmlns="http://www.w3.org/2000/svg" xmlns:xlink="http://www.w3.org/1999/xlink" xml:space="preserve" xmlns:serif="http://www.serif.com/" style="fill-rule:evenodd;clip-rule:evenodd;stroke-linejoin:round;stroke-miterlimit:2;">
    <g transform="matrix(1,0,0,1,-125.52304,-40.390298)">
        <g transform="matrix(1.607701,0,0,1.607701,-310.86802,-310.716037)">
            <path d="M699.5,324.5C706.841,327.626 713.341,332.292 719,338.5C723.969,348.716 723.636,358.716 718,368.5C714.645,372.852 710.979,376.852 707,380.5C706.544,381.744 707.044,382.577 708.5,383C707.944,383.383 707.611,383.883 707.5,384.5C703.619,383.559 700.953,381.226 699.5,377.5C703.569,373.601 707.069,369.267 710,364.5C714.352,345.85 707.019,337.184 688,338.5C686.927,334.9 687.76,331.9 690.5,329.5C693.054,327.056 696.054,325.389 699.5,324.5Z" style="fill:rgb(208,199,181);"/>
            <path d="M513.5,222C520.106,223.819 533.928,226.993 535.5,227.5C548.653,231.745 561.32,237.079 573.5,243.5C589.906,253.225 604.906,264.892 618.5,278.5C624.752,286.024 630.752,293.691 636.5,301.5C637.475,303.795 638.808,305.795 640.5,307.5C641.441,309.05 642.107,310.716 642.5,312.5C658.932,348.334 665.098,386.001 661,425.5C660.095,432.696 658.428,439.696 656,446.5C655.936,395.77 640.603,350.436 610,310.5C607.333,307.833 604.667,305.167 602,302.5C627.789,342.904 640.956,387.404 641.5,436C640.813,466.597 635.813,496.431 626.5,525.5C616.962,554.494 603.628,581.494 586.5,606.5C564.739,638.933 538.406,667.267 507.5,691.5C506.549,692.326 505.549,692.492 504.5,692C536.679,661.844 560.846,626.344 577,585.5C547.399,632.787 510.899,674.287 467.5,710C421.982,747.76 372.315,778.927 318.5,803.5C317.03,800.314 317.53,797.314 320,794.5C325.398,789.593 330.898,784.927 336.5,780.5C386.884,743.29 432.051,700.29 472,651.5C508.67,605.817 533.337,554.151 546,496.5C550,475.341 551.833,454.008 551.5,432.5L551.5,430.5C551.369,415.318 549.702,400.318 546.5,385.5C546.56,384.957 565.461,429.663 567,454.5C568.799,491.374 563.132,527.04 550,561.5C547.345,567.494 544.679,573.494 542,579.5C540.972,582.509 540.305,585.509 540,588.5C571.143,539.153 587.643,485.153 589.5,426.5C589.578,410.094 587.578,394.094 583.5,378.5C582.12,370.899 580.12,363.566 577.5,356.5C559.324,308.655 524.991,280.655 474.5,272.5C455.535,269.883 437.535,272.883 420.5,281.5C408.629,284.207 398.296,289.707 389.5,298C388.552,298.483 386.483,300.552 386,301.5C369.466,316.529 364.799,334.529 372,355.5C377.006,363.006 383.173,369.339 390.5,374.5C399.889,379.72 408.889,385.553 417.5,392C421.557,397.058 425.224,402.392 428.5,408C427.906,408.464 427.239,408.631 426.5,408.5C403.862,403.64 381.529,404.64 359.5,411.5C358.178,411.67 357.011,411.337 356,410.5C349.547,396.569 346.547,381.902 347,366.5C344.279,375.265 343.113,384.265 343.5,393.5C343.451,401.571 344.118,409.571 345.5,417.5C335.187,421.496 324.521,423.663 313.5,424C312.473,423.487 311.473,422.987 310.5,422.5C307.505,375.369 319.338,332.703 346,294.5C321.867,320.18 306.867,350.514 301,385.5C299.166,399.519 297.666,413.519 296.5,427.5C290.087,429.47 284.087,432.304 278.5,436C275.943,438.892 273.776,442.059 272,445.5C271.501,439.843 271.334,434.176 271.5,428.5C274.974,371.88 295.141,322.213 332,279.5C382.266,228.859 442.766,209.692 513.5,222Z" style="fill:rgb(236,231,216);"/>
            <path d="M503.5,317.5C495.949,312.892 487.949,309.059 479.5,306C453.016,297.426 428.35,300.926 405.5,316.5C404.876,316.083 404.543,315.416 404.5,314.5C409.304,301.521 417.638,291.354 429.5,284C443.922,277.422 458.922,273.589 474.5,272.5C524.991,280.655 559.324,308.655 577.5,356.5C580.12,363.566 582.12,370.899 583.5,378.5C587.578,394.094 589.578,410.094 589.5,426.5C587.643,485.153 571.143,539.153 540,588.5C540.305,585.509 540.972,582.509 542,579.5C544.679,573.494 547.345,567.494 550,561.5C563.132,527.04 568.799,491.374 567,454.5C565.461,429.663 546.56,384.957 546.5,385.5C542.272,370.044 526.167,341.5 525.5,341.5C524.25,339.068 522.75,336.734 521,334.5C515.271,328.603 509.438,322.936 503.5,317.5Z" style="fill:rgb(212,205,181);"/>
            <path d="M420.5,281.5C400.884,292.554 390.551,309.387 389.5,332C390.109,333.948 390.776,335.782 391.5,337.5C393.029,343.537 396.362,348.37 401.5,352C413.529,358.676 425.196,365.843 436.5,373.5C443.025,378.86 447.858,385.527 451,393.5C454.553,403.657 457.387,413.99 459.5,424.5C460.433,430.376 460.359,432.539 459,429.5C450.616,418.6 439.783,411.6 426.5,408.5C427.239,408.631 427.906,408.464 428.5,408C425.224,402.392 421.557,397.058 417.5,392C408.889,385.553 399.889,379.72 390.5,374.5C383.173,369.339 377.006,363.006 372,355.5C364.799,334.529 369.466,316.529 386,301.5C386.483,300.552 388.552,298.483 389.5,298C398.296,289.707 408.629,284.207 420.5,281.5Z" style="fill:rgb(223,217,199);"/>
            <path d="M474.5,272.5C458.922,273.589 443.922,277.422 429.5,284C417.638,291.354 409.304,301.521 404.5,314.5C404.543,315.416 404.876,316.083 405.5,316.5C401.562,319.935 397.729,323.602 394,327.5C391.994,330.536 391.16,333.869 391.5,337.5C390.776,335.782 390.109,333.948 389.5,332C390.551,309.387 400.884,292.554 420.5,281.5C437.535,272.883 455.535,269.883 474.5,272.5Z" style="fill:rgb(186,176,157);"/>
            <path d="M745.5,317.5C746.653,319.807 747.82,322.14 749,324.5C751.222,334.695 752.055,345.028 751.5,355.5C747.454,381.206 732.787,390.873 707.5,384.5C707.611,383.883 707.944,383.383 708.5,383C707.044,382.577 706.544,381.744 707,380.5C710.979,376.852 714.645,372.852 718,368.5C723.636,358.716 723.969,348.716 719,338.5C713.341,332.292 706.841,327.626 699.5,324.5C709.808,320.349 720.141,316.182 730.5,312C736.668,310.777 741.668,312.61 745.5,317.5Z" style="fill:rgb(236,232,215);"/>
            <path d="M310.5,422.5C308.265,423.228 306.432,424.561 305,426.5C304.667,426.167 304.333,425.833 304,425.5C303.424,428.124 302.09,428.791 300,427.5C299.085,428.328 298.419,429.328 298,430.5C297.768,429.263 297.268,428.263 296.5,427.5C297.666,413.519 299.166,399.519 301,385.5C306.867,350.514 321.867,320.18 346,294.5C319.338,332.703 307.505,375.369 310.5,422.5Z" style="fill:rgb(212,205,185);"/>
            <path d="M359.5,411.5C355.96,413.312 352.293,414.979 348.5,416.5C347.808,415.975 346.268,417.737 345.5,417.5C344.118,409.571 343.451,401.571 343.5,393.5C343.113,384.265 344.279,375.265 347,366.5C346.547,381.902 349.547,396.569 356,410.5C357.011,411.337 358.178,411.67 359.5,411.5Z" style="fill:rgb(212,205,184);"/>
            <path d="M426.5,408.5C444.759,411.6 459.951,428.485 460.123,429.872C460.705,434.565 461.127,439.859 460.5,444.5C455.194,457.978 445.86,467.811 432.5,474C422.099,479.705 411.433,484.539 400.5,488.5C359.45,499.85 320.783,494.35 284.5,472C277.656,467.151 275.022,460.651 272.866,452.5C272.197,448.325 272.123,447.929 272,445.5C273.776,442.059 275.943,438.892 278.5,436C284.087,432.304 290.087,429.47 296.5,427.5C297.268,428.263 308.265,423.228 310.5,422.5C311.473,422.987 312.473,423.487 313.5,424C324.521,423.663 335.187,421.496 345.5,417.5C346.268,416.737 355.96,413.312 359.5,411.5C381.529,404.64 403.862,403.64 426.5,408.5Z" style="fill:rgb(199,192,172);"/>
            <path d="M393.5,420.5C407.52,419.669 420.52,422.835 432.5,430C434.7,432.234 436.533,434.734 438,437.5C438.667,440.833 438.667,444.167 438,447.5C432.807,457.025 425.307,464.192 415.5,469C411.491,469.748 407.824,471.248 404.5,473.5C403.167,472.833 403.167,472.167 404.5,471.5C413.483,467.425 421.316,461.758 428,454.5C435.296,444.539 433.796,436.372 423.5,430C409.273,424.777 394.606,422.777 379.5,424C384.119,422.348 388.786,421.181 393.5,420.5Z" style="fill:rgb(185,175,155);"/>
            <path d="M386.5,436.5C391.503,436.031 397.448,435.937 401.5,438C406.988,440.795 411.929,449.244 404.5,457C386.854,468.913 367.854,471.913 347.5,466C366.661,468.091 384.327,464.091 400.5,454C402.95,451.611 404.673,447.128 402.756,444.878C400.839,442.628 394.55,440.694 389,440.5C376.83,441.626 365.164,444.626 354,449.5C353.383,448.551 353.549,447.718 354.5,447C359.717,445.451 364.717,443.451 369.5,441C375.019,438.46 381.167,437 386.5,436.5Z" style="fill:rgb(186,175,155);"/>
            <path d="M339.5,436C343.198,434.807 352.521,432.998 351.5,433.5C338.369,439.367 324.702,443.534 310.5,446C301.379,448.723 299.545,453.89 305,461.5C316.402,469.491 328.902,475.325 342.5,479C325.111,478.377 310.111,472.211 297.5,460.5C294.081,454.43 295.081,449.263 300.5,445C303.993,443.209 307.659,441.876 311.5,441C320.985,440.132 330.318,438.465 339.5,436Z" style="fill:rgb(185,175,155);"/>
            <path d="M699.5,464.5C723.38,467.191 731.547,479.858 724,502.5C720.264,507.738 715.764,512.071 710.5,515.5C709.387,514.054 709.22,512.387 710,510.5C714.491,503.044 716.491,495.044 716,486.5C712.474,478.321 706.307,475.321 697.5,477.5C697.631,473.048 698.298,468.714 699.5,464.5Z" style="fill:rgb(208,200,181);"/>
            <path d="M610.5,617.5C591.64,642.697 544.5,687.5 544.5,687.5C529.613,699.883 514.28,711.717 498.5,723C482.26,733.426 465.926,743.592 449.5,753.5C420.257,769.242 390.257,783.242 359.5,795.5C350.876,798.096 342.21,800.596 333.5,803C328.368,804.417 323.368,804.584 318.5,803.5C372.315,778.927 421.982,747.76 467.5,710C510.899,674.287 547.399,632.787 577,585.5C560.846,626.344 536.679,661.844 504.5,692C505.549,692.492 506.549,692.326 507.5,691.5C538.406,667.267 564.739,638.933 586.5,606.5C603.628,581.494 616.962,554.494 626.5,525.5C635.813,496.431 640.813,466.597 641.5,436C640.956,387.404 627.789,342.904 602,302.5L610,310.5C640.603,350.436 655.936,395.77 656,446.5C658.428,439.696 660.095,432.696 661,425.5C665.098,386.001 658.932,348.334 642.5,312.5C646.767,319.369 650.767,326.369 654.5,333.5C655.569,335.543 655.992,337.819 657.5,339.5C671.776,378.236 677.109,418.236 673.5,459.5L673.5,460.5C671.6,470.666 669.933,481 668.5,491.5C665.473,503.923 661.807,516.256 657.5,528.5C646.251,560.672 630.585,590.338 610.5,617.5Z" style="fill:rgb(211,204,185);"/>
            <path d="M752.5,477.5L752.5,483.5C750.402,491.958 747.569,500.291 744,508.5C741.252,513.252 737.752,517.419 733.5,521C727.353,524.478 721.353,524.311 715.5,520.5C713.527,519.194 711.861,517.527 710.5,515.5C715.764,512.071 720.264,507.738 724,502.5C731.547,479.858 723.38,467.191 699.5,464.5C699.144,459.048 701.477,455.215 706.5,453C714.717,452.945 722.717,451.612 730.5,449C734.5,448.333 738.5,448.333 742.5,449C744.624,450.122 746.457,451.622 748,453.5C751.543,461.088 753.043,469.088 752.5,477.5Z" style="fill:rgb(235,231,215);"/>
        </g>
    </g>
</svg>
